<?xml version="1.0" encoding="UTF-8" standalone="no"?>
<svg
   height="24px"
   viewBox="0 0 24 24"
   width="24px"
   version="1.1"
   id="svg2"
   sodipodi:docname="open_in_new_black_24dp.svg"
   inkscape:version="1.3.1 (91b66b0783, 2023-11-16)"
   xmlns:inkscape="http://www.inkscape.org/namespaces/inkscape"
   xmlns:sodipodi="http://sodipodi.sourceforge.net/DTD/sodipodi-0.dtd"
   xmlns="http://www.w3.org/2000/svg"
   xmlns:svg="http://www.w3.org/2000/svg">
  <defs
     id="defs2">
    <clipPath
       clipPathUnits="userSpaceOnUse"
       id="clipPath13">
      <path
         id="path14"
         d="M 0,0 V 24 H 24 V 0 Z m 6.6269531,0.75390625 c 0.090864,-2.3863e-4 0.1826084,0.001231 0.2734375,0 0.2675361,0.0187114 0.5360403,0.0264068 0.8027344,0.0546875 0.6829988,0.0724264 0.9945162,0.13439801 1.6367188,0.26953125 0.1547191,0.032556 0.5650612,0.1245401 0.7324222,0.1835938 0.105049,0.037067 0.204318,0.088772 0.30664,0.1328124 0.06002,0.051488 0.123832,0.098321 0.179688,0.1542969 0.154601,0.1549332 0.234828,0.339097 0.367187,0.5078125 0.03383,0.043102 0.07451,0.080518 0.111328,0.1210938 0.02831,0.031194 0.05585,0.062402 0.08399,0.09375 0.01321,0.024143 0.02768,0.047207 0.03906,0.072266 0.02491,0.054858 0.03537,0.1330503 0.04297,0.1894531 0.02677,0.1991498 0.01984,0.1752611 0.02734,0.3867188 0.0057,0.1746278 0.01006,0.3443728 -0.01953,0.5175781 -0.0061,0.035966 -0.01759,0.069836 -0.02539,0.1054688 -0.05281,0.2397412 -0.0017,0.086927 -0.09375,0.3085937 -0.03195,0.051062 -0.06054,0.1053859 -0.0957,0.1542969 -0.0079,0.010989 -0.02665,0.031215 -0.04102,0.046875 -0.0042,0.046488 -0.01223,0.092967 -0.0293,0.1386718 -0.0071,0.018026 -0.01738,0.035763 -0.02148,0.054688 -0.01788,0.081626 -0.01272,0.1525794 -0.01563,0.2363281 -0.0062,0.1809244 -0.0141,0.361926 -0.01758,0.5429687 0.04216,0.1178752 0.09025,0.2335673 0.142578,0.3476563 0.07233,0.1440072 0.139706,0.2872796 0.228516,0.421875 0.03216,0.048741 0.06102,0.099059 0.09766,0.1445312 0.03933,0.048818 0.08648,0.090572 0.128906,0.1367188 0.03426,0.037256 0.06776,0.075603 0.101562,0.1132812 0.05091,0.071903 0.103358,0.1640527 0.173829,0.2207031 0.132324,0.1063737 0.311266,0.1324551 0.449218,0.2304688 0.08125,0.04313 0.162443,0.083047 0.242188,0.1289062 0.179645,0.1033091 0.226048,0.142779 0.388672,0.2695313 0.177802,0.1385833 0.354491,0.2797309 0.496093,0.4570313 0.156487,0.2495102 0.01627,0.030372 0.244141,0.3789062 0.064,0.097893 0.133382,0.1933726 0.191406,0.2949219 0.103766,0.1816004 0.168265,0.4033225 0.273438,0.5859375 0.05119,0.1303671 0.08016,0.2152822 0.150391,0.3378906 0.05909,0.1031629 0.123878,0.2042544 0.1875,0.3046875 0.08426,0.1330208 0.168006,0.265805 0.255859,0.3964844 0.126613,0.1883331 0.263664,0.3699673 0.386719,0.5605473 0.05118,0.06781 0.101138,0.136865 0.154296,0.203125 0.07967,0.0993 0.313842,0.365682 0.394532,0.478515 0.121327,0.169649 0.187628,0.304116 0.289062,0.482422 0.04842,0.08511 0.09764,0.169037 0.146485,0.253907 0.04628,0.06408 0.09051,0.130679 0.138671,0.193359 0.195526,0.254462 0.413131,0.491763 0.59375,0.757812 0.06804,0.100216 0.130817,0.20566 0.191407,0.310547 0.05481,0.09488 0.102487,0.192513 0.154297,0.289063 0.04865,0.120342 0.100877,0.238599 0.148437,0.359375 0.01694,0.04301 0.03082,0.08751 0.04687,0.130859 0.0311,0.08396 0.08409,0.195841 0.08789,0.287109 0.0019,0.0457 -0.01544,0.08973 -0.02344,0.134766 -0.08223,0.146212 -0.01488,0.02937 -0.08008,0.164063 0.0063,0.0139 0.0046,0.0096 0.01172,0.02539 0.02049,0.04542 0.02749,0.09462 0.04102,0.142578 0.0098,0.05429 0.022,0.109373 0.0293,0.164063 0.02353,0.17703 0.0095,0.09313 0.0098,0.214844 1.1e-4,0.04335 0.0097,0.125143 0.01367,0.158203 0.0056,0.04593 0.01158,0.09085 0.01758,0.136719 0.0069,0.141995 0.02407,0.212595 -0.01563,0.349609 -0.04922,0.169925 -0.175356,0.299478 -0.302734,0.414062 -0.02258,0.02679 -0.04819,0.05143 -0.06836,0.08008 -0.04886,0.0694 -0.08046,0.147753 -0.123047,0.220703 -0.02408,0.04125 -0.05073,0.08067 -0.07617,0.121093 -0.115163,0.183014 -0.05142,0.103525 -0.171874,0.234375 -0.08115,0.08915 -0.161839,0.182686 -0.261719,0.251953 -0.09077,0.06294 -0.188886,0.09736 -0.292969,0.13086 -0.13579,0.05868 -0.230906,0.08765 -0.347656,0.07813 -0.04761,0.01079 -0.09667,0.01573 -0.148438,0.01172 -0.35133,-0.0029 -0.704758,0.05215 -1.054687,-0.002 -0.0897,-0.02833 -0.127388,-0.03504 -0.210938,-0.07812 -0.0071,-0.0037 -0.01018,-0.01448 -0.01758,-0.01758 -0.03511,-0.01495 -0.07357,-0.0239 -0.109375,-0.03711 -0.138566,-0.05112 -0.245589,-0.09828 -0.384766,-0.15625 -0.162581,-0.08131 -0.385106,-0.174864 -0.515624,-0.306641 -0.01645,-0.0166 -0.0263,-0.03768 -0.03711,-0.05859 -0.01477,-0.0044 -0.02977,-0.0091 -0.04492,-0.01172 -0.08652,-0.01529 -0.404586,-0.05264 -0.472656,-0.05664 -0.132088,-0.0078 -0.264532,0.0068 -0.396484,-0.0078 -0.08111,-0.0155 0.0265,9.4e-4 -0.119141,-0.0059 -0.192057,-0.009 -0.377464,-0.06129 -0.566406,-0.0918 -0.09081,-0.01921 -0.370185,-0.07335 -0.453125,-0.109376 -0.134511,-0.05842 -0.07491,-0.06383 -0.140625,-0.136718 -0.05859,-0.06499 -0.128296,-0.112946 -0.197266,-0.166016 -0.157273,-0.125639 -0.321412,-0.248434 -0.458984,-0.396484 -0.0102,-0.01098 -0.01714,-0.02613 -0.02734,-0.03711 -0.01189,-0.01281 -0.02588,-0.02368 -0.03906,-0.03516 -0.0042,-0.005 -0.0075,-0.0087 -0.01172,-0.01367 -0.13923,-0.109328 -0.03002,-0.02853 -0.259766,-0.169922 -0.092459,-0.0569 -0.1848328,-0.117008 -0.2773436,-0.173828 -0.2421207,-0.148703 -0.4863638,-0.291573 -0.7109375,-0.466797 -0.030279,-0.0271 -0.061092,-0.05331 -0.089844,-0.08203 -0.098266,-0.09815 0.04984,0.0036 -0.140625,-0.126953 C 8.6066238,14.237448 8.3487631,14.145552 8.1347656,13.976562 7.9978254,13.851141 7.8037671,13.677898 7.6757812,13.541016 7.6213805,13.482834 7.5742182,13.417122 7.5214844,13.357422 7.4747129,13.304475 7.4248151,13.255085 7.3769531,13.203125 7.0981079,12.900384 7.2695988,13.058891 6.9492188,12.796875 6.8467089,12.714615 6.743689,12.632351 6.640625,12.550781 6.3274256,12.302913 6.337481,12.332443 6.0703125,12.064453 c -0.048403,-0.04855 -0.09203,-0.104047 -0.1386719,-0.154297 -0.023517,-0.02533 -0.061939,-0.03927 -0.072266,-0.07226 -0.00123,-0.0039 7.895e-4,-0.007 0.00391,-0.0078 -0.036396,-0.0042 -0.067705,-0.01151 -0.1230468,-0.04492 -0.01712,-0.01034 -0.034191,-0.033 -0.050781,-0.05469 -0.053784,-0.0037 -0.1150419,-0.0072 -0.1601562,-0.0098 C 5.3134549,11.689117 5.0968412,11.66718 4.8828125,11.625 4.7101144,11.59097 4.5413812,11.536745 4.3710938,11.492188 3.8542664,11.35696 3.3413167,11.207777 2.8183594,11.097656 2.5862388,11.048779 2.5802622,10.857417 2.7304688,10.806641 c -0.031888,-0.03859 -0.062932,-0.07747 -0.097656,-0.113282 -0.00653,-7e-6 -0.013013,0.0025 -0.019531,0.002 -0.099061,-0.0084 -0.188733,-0.10454 -0.265625,-0.15039 -0.083719,-0.109909 -0.099974,-0.121324 -0.1679687,-0.251953 -0.010009,-0.01923 -0.014784,-0.04189 -0.021484,-0.0625 -0.0034,-0.01046 -0.0013,-0.02235 -0.00781,-0.03125 -0.012336,-0.01677 -0.15024,-0.157863 -0.15625,-0.164063 C 1.9570388,9.9890599 1.9176215,9.9443362 1.8828125,9.8964844 1.8545835,9.8576779 1.8304785,9.8158586 1.8046875,9.7753906 1.7767325,9.7315258 1.7462631,9.6898342 1.7207031,9.6445312 1.6435692,9.5078183 1.6010608,9.3572436 1.546875,9.2109375 1.53895,9.1822335 1.5344785,9.152656 1.5234375,9.125 1.5097215,9.090644 1.4890282,9.0585616 1.4726562,9.0253906 1.4544164,8.9884334 1.4398089,8.9501615 1.4199219,8.9140625 1.4022149,8.8819215 1.3802001,8.8517835 1.3613281,8.8203125 1.3224572,8.7554921 1.1966657,8.5354932 1.1699219,8.4882812 1.1276799,8.405953 1.0800026,8.3250332 1.0429688,8.2402344 0.96209494,8.055052 0.96005342,7.9993862 0.90820312,7.8203125 0.84590466,7.605154 0.77534488,7.3922614 0.7109375,7.1777344 L 0.6640625,7.0175781 C 0.6601319,6.9959001 0.65809273,6.974393 0.65234375,6.953125 0.61751671,6.82428 0.6048536,6.8284057 0.56835938,6.6894531 0.51278998,6.4778716 0.52058201,6.4583455 0.49609375,6.2226562 0.49455685,5.9021549 0.48877556,5.8349528 0.515625,5.5 0.5441196,5.1445235 0.5631194,5.1002009 0.6054688,4.765625 0.6693242,4.2611418 0.6130788,4.5948293 0.6914063,4.1777344 0.7146002,4.0939604 0.7402892,4.0104962 0.7597657,3.9257812 0.7830961,3.8243031 0.79769,3.7211941 0.8183595,3.6191406 0.8379386,3.5224706 0.8612402,3.4267399 0.8808595,3.3300781 0.8979951,3.2456531 0.906175,3.1590477 0.9296876,3.0761719 0.9844269,2.8832309 1.046872,2.8052455 1.1503907,2.6308594 c 0.027494,-0.023953 0.055808,-0.04912 0.083984,-0.072266 0.0178,-0.014622 0.039179,-0.023983 0.054687,-0.041016 0.057989,-0.063688 0.059537,-0.1206118 0.1054687,-0.1972656 0.098365,-0.1641567 0.1448241,-0.1898213 0.2871094,-0.3359375 0.063945,-0.045479 0.122668,-0.098872 0.1914063,-0.1367188 0.089643,-0.049357 0.406748,-0.1572946 0.4902343,-0.1875 0.2333644,-0.084431 0.4671507,-0.1729681 0.703125,-0.25 C 3.4213913,1.285966 3.7814415,1.1809321 4.1425773,1.0761712 4.263521,1.0410872 4.3838457,1.0018662 4.5058586,0.97070242 c 0.1185657,-0.030283 0.23787,-0.0520058 0.3574218,-0.078125 0.1011478,-0.0126773 0.2030641,-0.0310464 0.3046876,-0.0390625 0.2207895,-0.0174159 0.5013334,-0.009724 0.7207031,-0.0253906 0.077453,-0.005532 0.1536325,-0.0180803 0.2304687,-0.0292969 0.078476,-0.0114559 0.1571506,-0.0345234 0.2363282,-0.0390625 0.090689,-0.005199 0.18062,-0.005621 0.2714851,-0.005859 z M 6.8789062,1.0566406 c -0.1731315,0.0027 -0.3466721,-3.112e-4 -0.5195312,0.00977 -0.063985,0.00373 -0.1260873,0.023573 -0.1894531,0.033203 -0.080017,0.012163 -0.1595146,0.02534 -0.2402344,0.03125 -0.2496664,0.018272 -0.500439,0.00768 -0.75,0.027344 -0.092687,0.0073 -0.1851389,0.025171 -0.2773437,0.037109 -0.1105254,0.02455 -0.2224193,0.04586 -0.3320313,0.074215 C 4.4551024,1.2993337 4.3427753,1.3358802 4.2285156,1.3691406 3.872569,1.4727552 3.5158982,1.5764542 3.1660156,1.6992188 2.9312791,1.7758054 2.7008767,1.8613267 2.46875,1.9453125 2.3937754,1.9724392 2.0769491,2.0808367 1.9902344,2.1289062 c -0.047055,0.026085 -0.084644,0.066375 -0.1269532,0.099609 -0.1087207,0.1160883 -0.1446607,0.1381325 -0.2167968,0.265625 -0.066509,0.1175465 0.011641,0.05074 -0.1015625,0.1875 C 1.5104064,2.7233386 1.3988046,2.8182103 1.3515625,2.859375 1.3047575,2.9581792 1.2409146,3.0824902 1.2128906,3.1875 c -0.017196,0.064438 -0.018545,0.1317938 -0.03125,0.1972656 -0.019446,0.1002089 -0.0442,0.1987792 -0.064453,0.2988282 -0.02022,0.099886 -0.033767,0.2014694 -0.056641,0.3007812 -0.021316,0.092547 -0.051153,0.1818217 -0.0761719,0.2734375 -0.0712973,0.389604 -0.0151256,0.05589 -0.0761719,0.5410156 -0.042105,0.3346021 -0.061896,0.3835642 -0.0898437,0.734375 -0.0252981,0.3175476 -0.017543,0.384211 -0.015625,0.6875 0.0228236,0.2072555 0.0148502,0.2209042 0.0644531,0.4023438 0.0874355,0.3198259 -0.009172,-0.079476 0.0761719,0.2382812 0.008735,0.032524 0.0146454,0.064681 0.0214844,0.097656 L 1.003906,7.0898435 c 0.064175,0.2135893 0.1332907,0.426391 0.1953126,0.640625 0.049308,0.1703172 0.056067,0.237532 0.1308593,0.40625 0.032049,0.072296 0.074491,0.14096 0.1113281,0.2109374 0.017314,0.030497 0.082109,0.1443027 0.1328126,0.2324219 0.014894,-0.025149 0.036726,-0.046699 0.054687,-0.070312 0.00561,-0.00737 -0.021362,0.028588 -0.013672,0.023437 0.015728,-0.010534 0.032361,-0.023312 0.039063,-0.041016 0.07339,-0.1938893 0.062182,-0.318608 0.078125,-0.5351563 -0.00148,-0.1198913 0.00307,-0.2396777 -0.00391,-0.359375 C 1.7202576,7.4559743 1.6793906,7.2892232 1.6503906,7.1523438 1.6118729,6.9705375 1.5907655,6.8973054 1.5703125,6.6992188 1.5567305,6.5676751 1.5508656,6.4346096 1.5410156,6.3027344 1.5261766,6.1388978 1.5165799,5.9759596 1.4980469,5.8125 1.4955729,5.7906874 1.4099635,5.1945925 1.4023438,5.0878906 c -0.00566,-0.07923 -0.00313,-0.1588535 -0.00391,-0.2382812 -0.00271,-0.278613 -9.738e-4,-0.206215 0.00195,-0.5 0.00288,-0.093255 0.00392,-0.1860792 0.00781,-0.2792969 9.39e-4,-0.022517 0.018123,-0.3146434 0.017578,-0.3613281 -0.00333,-0.2857845 -0.024595,-0.07039 -0.013672,-0.3964844 0.00255,-0.076004 0.013511,-0.1507548 0.019531,-0.2265625 0.041615,-0.1551547 0.044244,-0.2143464 0.140625,-0.3554687 0.1095507,-0.1604063 0.3086331,-0.1985217 0.4375,-0.3359376 0.014635,0.012733 0.037809,0.057762 0.042969,0.039063 C 2.1078465,2.233919 1.9573037,2.1984603 2.2011719,2.0800781 2.327265,2.0188682 2.4670781,1.9910926 2.6035156,1.9589844 3.3013782,1.7947536 3.4087776,1.8020518 4.1230469,1.7167969 c 0.1495153,-0.00273 0.2977285,-0.00883 0.4472656,-0.00781 0.144107,9.777e-4 0.2875499,0.021073 0.4316406,0.023437 0.5404506,0.00887 1.0815936,-0.025533 1.6191407,-0.078125 0.2302703,-0.015861 0.4607002,-0.041696 0.6914062,-0.048828 0.2020212,-0.00625 0.4034021,0.00327 0.6054688,0.00781 0.4228661,0.00951 0.8447925,0.039074 1.2675781,0.048828 0.049775,0.01339 0.1737334,0.039889 0.2148437,0.080078 0.013956,0.013644 -0.050362,-4.31e-4 -0.074219,0.039063 -0.016531,0.027364 -0.060254,0.1068813 -0.033203,0.089844 0.068122,-0.042905 0.1122266,-0.1157393 0.1679687,-0.1738282 0.045125,0.015356 0.094385,0.021548 0.1347656,0.046875 0.044239,0.027747 0.074754,0.072102 0.1113281,0.109375 0.076654,0.078117 0.1536361,0.1565086 0.2285157,0.2363282 0.2034353,0.2168555 0.3949983,0.4508068 0.6289063,0.6367187 0.02289,0.020852 0.04646,0.040602 0.06836,0.0625 0.0034,0.00336 0.0038,0.00908 0.0078,0.011719 0.03658,0.024368 0.08157,0.037918 0.113281,0.068359 0.118971,0.1142227 0.133048,0.2831725 0.166016,0.4355469 0.01388,-0.1243356 0.01027,-0.2508421 0.0059,-0.375 -0.0073,-0.2058124 2.2e-4,-0.1763673 -0.02539,-0.359375 -0.0052,-0.037043 -0.0101,-0.108421 -0.04102,-0.140625 C 10.738613,2.3258292 10.65109,2.197487 10.5625,2.0664062 10.521457,2.0056674 10.486869,1.9398632 10.443359,1.8808594 10.346415,1.749379 10.308194,1.7313267 10.181641,1.6269531 10.106784,1.5994543 10.03312,1.5688009 9.9570312,1.5449219 9.768062,1.485618 9.4521619,1.412923 9.2714844,1.375 8.6357203,1.241557 8.3380894,1.1825781 7.6621094,1.1113281 7.4021417,1.0839263 7.1396925,1.0746556 6.8789062,1.0566406 Z m 0.4296876,0.8535156 c -0.2224031,0.00695 -0.4440532,0.031252 -0.6660157,0.046875 -0.544111,0.053179 -1.091642,0.090701 -1.6386719,0.082031 -0.1505946,-0.00239 -0.3005614,-0.024418 -0.4511718,-0.025391 -0.1415604,-9.1e-4 -0.2822943,0.00492 -0.4238282,0.00781 -0.6872375,0.083438 -0.793767,0.07713 -1.4667968,0.2363281 -0.1073465,0.025392 -0.2128684,0.05565 -0.3164063,0.09375 -0.021037,0.077666 -0.059449,0.1481533 -0.089844,0.2226563 -0.1706853,0.1626339 -0.082051,0.094299 -0.2871094,0.2246093 -0.042069,0.026734 -0.088112,0.04884 -0.1269531,0.080078 -0.071571,0.057561 -0.09691,0.1960272 -0.1152344,0.2792969 -0.00325,0.05825 -0.00882,0.1174483 -0.00977,0.1757813 -0.00728,0.4474387 0.00953,-0.035702 0.013672,0.3554687 0.00108,0.1024773 -0.013478,0.3003738 -0.017578,0.3984375 -0.00379,0.090622 -0.00504,0.1808257 -0.00781,0.2714844 -0.00279,0.2878185 -0.00464,0.2151765 -0.00195,0.4882812 7.7e-4,0.078892 -0.00174,0.1595896 0.00391,0.2382813 0.00582,0.081032 0.020339,0.1597297 0.03125,0.2402344 0.020031,0.1477995 0.043752,0.2951573 0.060547,0.4433593 0.019061,0.1682014 0.031493,0.3372821 0.046875,0.5058594 0.00999,0.1335006 0.015601,0.2672197 0.029297,0.4003906 0.01854,0.1802721 0.037106,0.2492886 0.072266,0.4140626 0.030855,0.144597 0.072609,0.3162502 0.082031,0.4648437 0.00837,0.1320737 0.00538,0.2641677 0.00781,0.3964844 -0.018173,0.2472428 -0.0033,0.5364272 -0.1640625,0.7460937 0.015035,0.1225362 0.020852,0.146904 0.025391,0.28125 0.00316,0.093408 -0.018857,0.2166016 0.042969,0.2988282 0.012333,0.016402 0.034094,0.025165 0.050781,0.037109 0.057503,0.043774 0.1173874,0.089134 0.1601563,0.1484375 0.017014,0.023593 0.030556,0.050139 0.046875,0.074219 0.024566,0.03625 0.1021152,0.1341982 0.1191406,0.15625 0.053638,0.086814 0.092763,0.1400902 0.1308594,0.2324218 0.00507,0.012282 0.024293,0.075312 0.044922,0.1152352 0.030776,0.0061 0.054471,0.02991 0.082031,0.04492 0.1155288,0.06895 0.2228464,0.144642 0.2988281,0.257812 0.015651,0.02331 0.032503,0.04692 0.039063,0.07422 0.00681,0.02832 0.00865,0.09772 0.00977,0.144531 0.010043,0.01211 0.021476,0.02267 0.03125,0.03516 0.051392,0.03264 0.079486,0.06869 0.09375,0.105469 0.00841,0.0085 0.014425,0.01957 0.023437,0.02734 -0.00122,-0.08142 0.078284,-0.156172 0.2363282,-0.132813 0.2224273,0.03287 0.448598,0.01424 0.671875,0.02344 0.1185434,0.0049 0.2356259,0.01202 0.3535156,0.02539 0.1991093,0.02257 0.5547877,0.08532 0.7578125,0.119141 0.087481,0.02107 0.1745889,0.04002 0.2617187,0.0625 0.091496,0.02361 0.2263136,0.04853 0.21875,0.185547 0.010526,0.0096 0.020058,0.01942 0.03125,0.0293 0.019941,0.0176 0.043962,0.03194 0.060547,0.05273 0.032988,0.04136 0.056827,0.08863 0.085937,0.132813 0.073106,0.167545 0.053709,0.131953 0.1054688,0.207031 0.1105685,0.0068 0.2048416,0.0087 0.359375,-0.0098 0.00168,-0.0024 0.00413,-0.0036 0.00586,-0.0059 7.608e-4,-0.0021 0.00157,-0.0042 0.00195,-0.0059 2.367e-4,-9.99e-4 0.00297,4.53e-4 0.00391,0 0.018407,-0.02239 0.038522,-0.04021 0.066406,-0.04101 0.050821,-0.0015 0.077833,0.0444 0.091797,0.103515 0.031911,-0.01542 0.061964,0.01421 0.1933594,0.07227 0.3085073,0.112531 0.2639562,0.102923 0.6308594,0.191406 0.1070742,0.02582 0.215801,0.04013 0.3222656,0.06836 0.1318661,0.03497 0.3691209,0.102018 0.4882812,0.201172 0.045098,0.03753 0.071548,0.09225 0.1074219,0.138672 0.036931,0.03651 0.065835,0.08302 0.109375,0.111328 0.093292,0.06065 0.1970999,0.105039 0.296875,0.154296 0.1102264,0.05442 0.2190535,0.112638 0.3339844,0.15625 0.2882022,0.10937 0.5832846,0.160575 0.8847656,0.212891 0.033572,0.01691 0.074578,0.02273 0.099609,0.05078 0.00599,0.0067 0.1466419,0.270472 0.1679686,0.294922 0.0602,0.069 0.352958,0.297981 0.398438,0.337891 0.09808,0.08607 0.191119,0.177225 0.287109,0.265625 0.104514,0.127598 0.221077,0.257475 0.310547,0.398437 0.01726,0.0272 0.0268,0.05808 0.04297,0.08594 0.0032,0.0056 -0.0096,-0.02263 -0.0039,-0.01953 0.01713,0.0093 0.02969,0.02675 0.04297,0.04101 0.03037,0.03262 0.05866,0.06597 0.08789,0.09961 0.250086,0.302018 0.510519,0.596915 0.785156,0.876953 0.0525,0.05354 0.352223,0.35981 0.476563,0.43164 0.03693,0.02133 0.08197,0.02176 0.123046,0.0332 0.314896,0.0075 0.580474,0.174773 0.857422,0.300781 0.07047,0.03206 0.431775,0.17874 0.515625,0.21289 0.05118,0.01724 0.100654,0.03513 0.152344,0.05078 0.02403,0.0073 0.04962,0.01248 0.07422,0.01758 0.01355,0.0028 0.02834,3.18e-4 0.04102,0.0059 0.03632,0.01581 0.06912,0.03895 0.103515,0.05859 0.02641,0.01508 0.05002,0.03524 0.07813,0.04687 0.03051,0.01265 0.06372,0.01524 0.0957,0.02344 0.299287,0.05112 0.573978,0.190027 0.853516,0.300782 0.09092,0.03603 0.200662,0.06932 0.294922,0.09961 0.02149,0.0054 0.04066,0.01203 0.06055,0.01758 0.07666,-0.03082 0.160349,-0.08957 0.210937,-0.125 0.05474,-0.03833 0.108443,-0.07649 0.158203,-0.121094 0.03242,-0.02906 0.107562,-0.127758 0.138672,-0.167968 0.05111,-0.08304 0.09845,-0.169327 0.15625,-0.248047 0.02924,-0.03983 0.06177,-0.07599 0.0918,-0.115235 0.06209,-0.08113 0.08767,-0.122481 0.142578,-0.207031 0.0028,-0.02609 0.0056,-0.05198 0.0078,-0.07813 0.0081,-0.09677 0.0074,-0.09833 0,-0.195312 -0.0014,-0.01897 -0.01608,-0.16715 -0.01563,-0.1875 0.0012,-0.05269 0.0093,-0.10373 0.01367,-0.15625 0.03137,-0.240102 0.124844,-0.457601 0.230469,-0.673829 0.0212,-0.04339 0.04624,-0.08491 0.07031,-0.126953 -0.01327,-0.02457 -0.02752,-0.0486 -0.03906,-0.07422 -0.02047,-0.04543 -0.03464,-0.09306 -0.05469,-0.138672 -0.01825,-0.04151 -0.04122,-0.08007 -0.06055,-0.121094 -0.02655,-0.05635 -0.05063,-0.115065 -0.07617,-0.171875 -0.07855,-0.181607 -0.172449,-0.355869 -0.255859,-0.535156 C 16.302956,13.128211 16.299111,13.07548 16.15625,12.841797 15.96761,12.533233 15.938842,12.52368 15.699219,12.25 c -0.07589,-0.08164 -0.157536,-0.158201 -0.228516,-0.244141 -0.07774,-0.09412 -0.143427,-0.197364 -0.216797,-0.294921 -0.06971,-0.0927 -0.14535,-0.181101 -0.21289,-0.275391 -0.07125,-0.09946 -0.336774,-0.502828 -0.408204,-0.621094 -0.05101,-0.08446 -0.0965,-0.171622 -0.144531,-0.257812 -0.131878,-0.303354 -0.06083,-0.14495 -0.195312,-0.431641 -0.03284,-0.07001 -0.05977,-0.1415754 -0.09766,-0.2089844 -0.04377,-0.077861 -0.09361,-0.1526194 -0.146484,-0.2246094 -0.05875,-0.079988 -0.12675,-0.151991 -0.1875,-0.2304687 C 13.782244,9.358771 13.705926,9.2521699 13.628906,9.1484375 13.53207,9.0178276 13.383867,8.8058598 13.263672,8.6816406 13.215608,8.6319674 13.159102,8.5908176 13.107422,8.5449219 13.041916,8.4867515 12.978589,8.4261936 12.912109,8.3691406 12.821482,8.291367 12.536936,8.0627181 12.447266,7.9902344 11.990097,7.6057959 12.201904,7.7761821 11.740234,7.4179688 c -0.09198,-0.071367 -0.248183,-0.182637 -0.339843,-0.2753907 -0.05859,-0.059289 -0.07534,-0.091331 -0.117188,-0.15625 -0.02655,-0.040667 -0.05386,-0.082168 -0.08008,-0.1230469 C 11.165651,6.8048621 11.125617,6.7481047 11.091797,6.6875 10.986532,6.4988915 10.988118,6.4608197 10.892578,6.2753906 c -0.03165,-0.061435 -0.07866,-0.1307694 -0.117187,-0.1894531 -0.03609,-0.070354 -0.08733,-0.1578864 -0.105469,-0.2363281 -0.01271,-0.054816 -0.01102,-0.1126908 -0.02148,-0.1679688 -0.05044,-0.2659922 -0.02927,0.016854 -0.07031,-0.3222656 -0.0092,-0.075631 -0.01042,-0.1505548 -0.01563,-0.2265625 -8.8e-5,-0.020201 0.0018,-0.040352 0.002,-0.060547 -0.008,-0.02434 -0.01827,-0.047598 -0.02539,-0.072266 -0.01358,-0.047057 -0.02846,-0.094055 -0.03516,-0.1425781 -0.0182,-0.1321931 -0.0055,-0.2244319 0.002,-0.3574219 0.02961,-0.094975 -0.0016,-0.1971548 0.01953,-0.2929688 0.01254,-0.056901 0.03315,-0.1135986 0.05859,-0.1660156 0.02004,-0.041287 0.04405,-0.074321 0.07031,-0.1054687 -0.002,-0.042447 -0.0061,-0.085891 -0.0078,-0.1289063 -0.01558,-0.3944563 0.0091,-0.00958 -0.02148,-0.4335937 -0.0035,-0.014758 -0.0571,-0.2535848 -0.07617,-0.2929688 -0.03874,-0.079945 -0.02975,7.542e-4 -0.03125,0 C 10.47025,3.0569401 10.395815,2.9840766 10.359375,2.9511719 10.32259,2.9203169 10.28484,2.892407 10.25,2.859375 10.009021,2.6309257 9.9527655,2.5545711 9.7109375,2.296875 9.6374397,2.2185544 9.5635172,2.1411058 9.4882812,2.0644531 9.4821619,2.0582184 9.4751286,2.0528614 9.46875,2.046875 9.4428359,2.0571533 9.4155832,2.0632627 9.3886719,2.0605469 9.3012887,2.0517249 9.2473156,1.993999 9.1699219,1.96875 9.1520129,1.962907 9.1337624,1.9623844 9.1152344,1.9589844 8.885668,1.9696224 8.654717,1.9453069 8.4257812,1.9355469 8.1834347,1.9252169 7.5306934,1.9032165 7.3085938,1.9101562 Z M 6.2265625,11.414062 c -0.00178,0.0022 -0.00413,0.0036 -0.00586,0.0059 -7.608e-4,0.0021 -0.00147,0.0041 -0.00195,0.0059 0.011922,-0.0014 0.018337,-0.0022 0.03125,-0.0039 0.00828,-0.0011 -0.015982,-0.01144 -0.023437,-0.0078 z M 2.3457031,2.3515625 c -0.018914,0.00696 -0.03799,0.011902 -0.056641,0.019531 -0.011198,0.00458 3.627e-4,0.039326 0.011719,0.035156 0.022471,-0.00825 0.051182,-0.077793 0.044922,-0.054687 z m 8.8789059,3.9121094 c 0.04216,0.092096 0.0856,0.1909933 0.125,0.2617187 0.03311,0.059432 0.07265,0.1146113 0.109375,0.171875 0.02722,0.042444 0.05448,0.08472 0.08203,0.1269532 0.01836,0.030807 0.0373,0.064074 0.0625,0.089844 0.08645,0.088405 0.241295,0.1992886 0.324218,0.2636719 0.466797,0.3624293 0.257251,0.1945654 0.710938,0.5761718 0.105279,0.085114 0.374961,0.2998086 0.478516,0.3886719 0.06604,0.056676 0.128649,0.1175847 0.193359,0.1757813 0.06236,0.056079 0.129387,0.1075048 0.1875,0.1679687 0.04743,0.049348 0.09967,0.1150068 0.150391,0.1796875 C 13.59508,8.5413294 13.5457,8.4125844 13.480469,8.2988281 13.429592,8.2101049 13.366957,8.1282776 13.310547,8.0429688 13.130146,7.7701616 13.196176,7.8711168 13.0625,7.6582031 12.936185,7.5140628 12.78549,7.3963629 12.634766,7.2792969 12.574337,7.2323629 12.515995,7.1822797 12.453125,7.1386719 12.313676,7.0419482 12.203327,6.9905472 12.050781,6.9101562 11.90197,6.8139517 11.724365,6.7750301 11.582031,6.6679688 11.474338,6.586964 11.399516,6.4750927 11.322266,6.3671875 11.291981,6.3308736 11.258298,6.297287 11.224609,6.2636719 Z M 3.375,10.910156 c 5.211e-4,0.0026 -3.732e-4,0.0052 0,0.0078 0.3589429,0.08935 0.7165156,0.185704 1.0742188,0.279297 0.1702071,0.04453 0.3371429,0.09878 0.5097656,0.132812 0.1777759,0.03501 0.3591984,0.05236 0.5390625,0.07617 -0.00457,-0.01124 -0.00348,-0.0082 -0.00977,-0.02344 -0.040045,-0.09136 -0.00574,-0.03734 -0.09375,-0.11914 -0.01525,-0.01417 -0.024926,-0.03453 -0.042969,-0.04492 -0.038158,-0.02197 -0.09495,-0.0218 -0.1191406,-0.05859 -0.018183,-0.02766 -0.023017,-0.06019 -0.027344,-0.09375 -0.1296754,-0.09949 -0.2668634,-0.205865 -0.1640625,0 -0.1854792,-0.03093 -0.5477752,-0.09406 -0.7304687,-0.115234 -0.1100261,-0.01275 -0.219409,-0.02089 -0.3300781,-0.02539 -0.2012897,-0.0083 -0.4043337,0.0023 -0.6054688,-0.01563 z m 11.685547,0.002 c 0.09197,0.140293 0.185853,0.286526 0.222656,0.337891 0.06867,0.09584 0.144204,0.18685 0.214844,0.28125 0.0098,0.01303 0.0198,0.02583 0.0293,0.03906 -0.06999,-0.12568 -0.131526,-0.236907 -0.226563,-0.36914 -0.0281,-0.0391 -0.140504,-0.170624 -0.240234,-0.289063 z m -8.8945314,0.685547 c -0.00203,0.01884 -0.00324,0.03744 0.00586,0.04883 -0.00301,-0.01538 -0.00562,-0.03151 -0.00586,-0.04883 z m 0.054687,0.132813 c -0.011616,0.0017 -0.025131,0.0026 -0.037109,0.0039 0.037257,0.04216 0.073673,0.08525 0.1132812,0.125 0.075333,0.07561 0.1509387,0.149812 0.2324219,0.21875 0.095946,0.08117 0.2001699,0.154568 0.2988281,0.232422 0.1043687,0.08236 0.2068468,0.164846 0.3105469,0.248047 0.3244556,0.265323 0.1596834,0.11193 0.4628906,0.4375 0.047424,0.05092 0.096514,0.100188 0.1425781,0.152344 0.056457,0.06392 0.105852,0.134935 0.1640625,0.197265 0.1007491,0.107879 0.328028,0.311449 0.4316407,0.40625 0.2052603,0.147085 0.4419639,0.23718 0.6503906,0.378906 0.045255,0.03077 0.088068,0.06318 0.1289062,0.09961 0.09782,0.106525 0.050285,0.0624 0.1425782,0.140625 0.2119084,0.162267 0.4409164,0.296315 0.6679687,0.435547 0.093858,0.05757 0.1855267,0.116118 0.2792967,0.173828 0.239804,0.147588 0.11183,0.05638 0.285157,0.1875 0.01126,0.03043 0.04483,0.03729 0.06445,0.05859 0.0227,0.02466 0.04142,0.05182 0.06445,0.07617 0.123277,0.130354 0.272384,0.240205 0.412109,0.351563 0.07687,0.0591 0.148464,0.107847 0.214844,0.179687 0.02802,0.03032 0.04545,0.07 0.07422,0.09961 0.0078,0.0081 0.02217,0.0078 0.0332,0.0098 0.04131,0.0073 0.08178,0.01008 0.123047,0.01758 0.07325,0.01336 0.1459,0.02951 0.21875,0.04492 0.177558,0.02767 0.352825,0.07824 0.533203,0.08594 0.01168,5e-4 0.02347,-0.0041 0.03516,-0.0039 0.04564,6.3e-4 0.06733,0.0061 0.109375,0.01367 0.114168,0.0062 0.229654,-0.0029 0.34375,0.0039 0.09897,0.0059 0.196442,0.01787 0.294922,0.0293 0.0062,7.15e-4 0.03516,0.0042 0.04883,0.0059 -0.0084,-0.004 -0.01693,-0.0078 -0.02539,-0.01172 -0.180791,-0.08391 -0.367281,-0.152709 -0.568359,-0.162109 -0.07066,-0.02778 -0.147451,-0.04353 -0.212891,-0.08203 -0.131361,-0.07728 -0.446195,-0.396078 -0.509765,-0.460938 -0.277725,-0.283344 -0.541848,-0.581305 -0.794922,-0.886719 -0.0207,-0.02481 -0.04057,-0.05049 -0.0625,-0.07422 -0.06262,-0.06776 -0.03763,-0.01682 -0.105469,-0.113282 -0.009,-0.01286 -0.01113,-0.0297 -0.01953,-0.04297 -0.07793,-0.122866 -0.177628,-0.237417 -0.267578,-0.34961 -0.09181,-0.08476 -0.181491,-0.171466 -0.275391,-0.253906 -0.200876,-0.176361 -0.4674914,-0.334239 -0.5644531,-0.599609 -0.00522,-0.01434 0.036116,-0.0091 0.041016,-0.01953 C 9.548502,13.057937 9.3049582,13.018237 9.1777345,12.984487 8.8374507,12.894217 8.6893179,12.839445 8.3867189,12.681753 8.2614797,12.616483 8.1325087,12.552885 8.0175782,12.470815 c -0.059655,-0.0426 -0.1002229,-0.106706 -0.1503906,-0.160156 -0.00481,-0.07856 0.00791,-0.05772 -0.125,-0.113281 -0.251679,-0.105205 -0.3386174,-0.09512 -0.6132813,-0.16211 -0.399744,-0.0975 -0.3488338,-0.08879 -0.6914062,-0.216797 -0.064561,-0.03631 -0.1585773,-0.04639 -0.2167969,-0.08789 z M 16.74414,13.353563 c 0.02785,0.05705 0.054,0.114952 0.08203,0.171875 -0.01202,-0.02919 -0.02336,-0.05872 -0.03516,-0.08789 -0.01534,-0.02819 -0.03158,-0.05581 -0.04687,-0.08398 z m 0.291016,1.476562 c -0.05896,0.132319 -0.110094,0.26603 -0.13086,0.41211 -0.0042,0.03431 -0.01268,0.067 -0.01367,0.101562 -0.0019,0.06649 0.01348,0.132829 0.01758,0.199219 0.0039,0.06384 4e-4,0.126029 -0.0039,0.1875 0.07606,-0.07379 0.149482,-0.151663 0.173828,-0.257813 0.01092,-0.0475 -0.0032,-0.178137 -0.0059,-0.210937 -0.0114,-0.09875 -0.032,-0.197115 -0.0332,-0.296875 -3.97e-4,-0.03206 0.0033,-0.06366 0.002,-0.0957 -6.41e-4,-0.01591 -0.0048,-0.02553 -0.0059,-0.03906 z m -3.52539,1.513672 c 0.0042,0.0095 0.0093,0.01853 0.01758,0.02344 0.0078,0.0046 0.01924,-1.94e-4 0.02734,0.0039 0.02888,0.0146 0.05393,0.03473 0.08203,0.05078 0.09242,0.0528 0.194162,0.103021 0.289062,0.150391 0.122655,0.05061 0.235509,0.09889 0.359375,0.144531 0.03145,0.01159 0.06517,0.01744 0.0957,0.03125 0.03014,0.01363 0.05632,0.03607 0.08594,0.05078 0.02115,0.01051 0.126367,0.04047 0.134765,0.04297 0.102007,0.0088 0.204414,0.0092 0.306641,0.0078 -0.16529,-0.06801 -0.332299,-0.130474 -0.509765,-0.160156 -0.100512,-0.0342 -0.185006,-0.04939 -0.265626,-0.119141 -0.0069,-0.006 0.03604,8.94e-4 0.02734,-0.002 -0.01986,-0.0065 -0.04207,-0.0053 -0.0625,-0.0098 -0.122095,-0.02672 -0.12984,-0.03446 -0.269531,-0.08203 -0.06419,-0.02614 -0.192294,-0.08046 -0.318359,-0.132812 z" />
    </clipPath>
    <clipPath
       clipPathUnits="userSpaceOnUse"
       id="clipPath16">
      <path
         id="path17"
         d="M 0,0 V 24 H 24 V 0 Z m 6.6269531,0.75390625 c 0.090864,-2.3863e-4 0.1826084,0.001231 0.2734375,0 0.2675361,0.0187114 0.5360403,0.0264068 0.8027344,0.0546875 0.6829988,0.0724264 0.9945162,0.13439801 1.6367188,0.26953125 0.1547191,0.032556 0.5650612,0.1245401 0.7324222,0.1835938 0.105049,0.037067 0.204318,0.088772 0.30664,0.1328124 0.06002,0.051488 0.123832,0.098321 0.179688,0.1542969 0.154601,0.1549332 0.234828,0.339097 0.367187,0.5078125 0.03383,0.043102 0.07451,0.080518 0.111328,0.1210938 0.02831,0.031194 0.05585,0.062402 0.08399,0.09375 0.01321,0.024143 0.02768,0.047207 0.03906,0.072266 0.02491,0.054858 0.03537,0.1330503 0.04297,0.1894531 0.02677,0.1991498 0.01984,0.1752611 0.02734,0.3867188 0.0057,0.1746278 0.01006,0.3443728 -0.01953,0.5175781 -0.0061,0.035966 -0.01759,0.069836 -0.02539,0.1054688 -0.05281,0.2397412 -0.0017,0.086927 -0.09375,0.3085937 -0.03195,0.051062 -0.06054,0.1053859 -0.0957,0.1542969 -0.0079,0.010989 -0.02665,0.031215 -0.04102,0.046875 -0.0042,0.046488 -0.01223,0.092967 -0.0293,0.1386718 -0.0071,0.018026 -0.01738,0.035763 -0.02148,0.054688 -0.01788,0.081626 -0.01272,0.1525794 -0.01563,0.2363281 -0.0062,0.1809244 -0.0141,0.361926 -0.01758,0.5429687 0.04216,0.1178752 0.09025,0.2335673 0.142578,0.3476563 0.07233,0.1440072 0.139706,0.2872796 0.228516,0.421875 0.03216,0.048741 0.06102,0.099059 0.09766,0.1445312 0.03933,0.048818 0.08648,0.090572 0.128906,0.1367188 0.03426,0.037256 0.06776,0.075603 0.101562,0.1132812 0.05091,0.071903 0.103358,0.1640527 0.173829,0.2207031 0.132324,0.1063737 0.311266,0.1324551 0.449218,0.2304688 0.08125,0.04313 0.162443,0.083047 0.242188,0.1289062 0.179645,0.1033091 0.226048,0.142779 0.388672,0.2695313 0.177802,0.1385833 0.354491,0.2797309 0.496093,0.4570313 0.156487,0.2495102 0.01627,0.030372 0.244141,0.3789062 0.064,0.097893 0.133382,0.1933726 0.191406,0.2949219 0.103766,0.1816004 0.168265,0.4033225 0.273438,0.5859375 0.05119,0.1303671 0.08016,0.2152822 0.150391,0.3378906 0.05909,0.1031629 0.123878,0.2042544 0.1875,0.3046875 0.08426,0.1330208 0.168006,0.265805 0.255859,0.3964844 0.126613,0.1883331 0.263664,0.3699673 0.386719,0.5605473 0.05118,0.06781 0.101138,0.136865 0.154296,0.203125 0.07967,0.0993 0.313842,0.365682 0.394532,0.478515 0.121327,0.169649 0.187628,0.304116 0.289062,0.482422 0.04842,0.08511 0.09764,0.169037 0.146485,0.253907 0.04628,0.06408 0.09051,0.130679 0.138671,0.193359 0.195526,0.254462 0.413131,0.491763 0.59375,0.757812 0.06804,0.100216 0.130817,0.20566 0.191407,0.310547 0.05481,0.09488 0.102487,0.192513 0.154297,0.289063 0.04865,0.120342 0.100877,0.238599 0.148437,0.359375 0.01694,0.04301 0.03082,0.08751 0.04687,0.130859 0.0311,0.08396 0.08409,0.195841 0.08789,0.287109 0.0019,0.0457 -0.01544,0.08973 -0.02344,0.134766 -0.08223,0.146212 -0.01488,0.02937 -0.08008,0.164063 0.0063,0.0139 0.0046,0.0096 0.01172,0.02539 0.02049,0.04542 0.02749,0.09462 0.04102,0.142578 0.0098,0.05429 0.022,0.109373 0.0293,0.164063 0.02353,0.17703 0.0095,0.09313 0.0098,0.214844 1.1e-4,0.04335 0.0097,0.125143 0.01367,0.158203 0.0056,0.04593 0.01158,0.09085 0.01758,0.136719 0.0069,0.141995 0.02407,0.212595 -0.01563,0.349609 -0.04922,0.169925 -0.175356,0.299478 -0.302734,0.414062 -0.02258,0.02679 -0.04819,0.05143 -0.06836,0.08008 -0.04886,0.0694 -0.08046,0.147753 -0.123047,0.220703 -0.02408,0.04125 -0.05073,0.08067 -0.07617,0.121093 -0.115163,0.183014 -0.05142,0.103525 -0.171874,0.234375 -0.08115,0.08915 -0.161839,0.182686 -0.261719,0.251953 -0.09077,0.06294 -0.188886,0.09736 -0.292969,0.13086 -0.13579,0.05868 -0.230906,0.08765 -0.347656,0.07813 -0.04761,0.01079 -0.09667,0.01573 -0.148438,0.01172 -0.35133,-0.0029 -0.704758,0.05215 -1.054687,-0.002 -0.0897,-0.02833 -0.127388,-0.03504 -0.210938,-0.07812 -0.0071,-0.0037 -0.01018,-0.01448 -0.01758,-0.01758 -0.03511,-0.01495 -0.07357,-0.0239 -0.109375,-0.03711 -0.138566,-0.05112 -0.245589,-0.09828 -0.384766,-0.15625 -0.162581,-0.08131 -0.385106,-0.174864 -0.515624,-0.306641 -0.01645,-0.0166 -0.0263,-0.03768 -0.03711,-0.05859 -0.01477,-0.0044 -0.02977,-0.0091 -0.04492,-0.01172 -0.08652,-0.01529 -0.404586,-0.05264 -0.472656,-0.05664 -0.132088,-0.0078 -0.264532,0.0068 -0.396484,-0.0078 -0.08111,-0.0155 0.0265,9.4e-4 -0.119141,-0.0059 -0.192057,-0.009 -0.377464,-0.06129 -0.566406,-0.0918 -0.09081,-0.01921 -0.370185,-0.07335 -0.453125,-0.109376 -0.134511,-0.05842 -0.07491,-0.06383 -0.140625,-0.136718 -0.05859,-0.06499 -0.128296,-0.112946 -0.197266,-0.166016 -0.157273,-0.125639 -0.321412,-0.248434 -0.458984,-0.396484 -0.0102,-0.01098 -0.01714,-0.02613 -0.02734,-0.03711 -0.01189,-0.01281 -0.02588,-0.02368 -0.03906,-0.03516 -0.0042,-0.005 -0.0075,-0.0087 -0.01172,-0.01367 -0.13923,-0.109328 -0.03002,-0.02853 -0.259766,-0.169922 -0.092459,-0.0569 -0.1848328,-0.117008 -0.2773436,-0.173828 -0.2421207,-0.148703 -0.4863638,-0.291573 -0.7109375,-0.466797 -0.030279,-0.0271 -0.061092,-0.05331 -0.089844,-0.08203 -0.098266,-0.09815 0.04984,0.0036 -0.140625,-0.126953 C 8.6066238,14.237448 8.3487631,14.145552 8.1347656,13.976562 7.9978254,13.851141 7.8037671,13.677898 7.6757812,13.541016 7.6213805,13.482834 7.5742182,13.417122 7.5214844,13.357422 7.4747129,13.304475 7.4248151,13.255085 7.3769531,13.203125 7.0981079,12.900384 7.2695988,13.058891 6.9492188,12.796875 6.8467089,12.714615 6.743689,12.632351 6.640625,12.550781 6.3274256,12.302913 6.337481,12.332443 6.0703125,12.064453 c -0.048403,-0.04855 -0.09203,-0.104047 -0.1386719,-0.154297 -0.023517,-0.02533 -0.061939,-0.03927 -0.072266,-0.07226 -0.00123,-0.0039 7.895e-4,-0.007 0.00391,-0.0078 -0.036396,-0.0042 -0.067705,-0.01151 -0.1230468,-0.04492 -0.01712,-0.01034 -0.034191,-0.033 -0.050781,-0.05469 -0.053784,-0.0037 -0.1150419,-0.0072 -0.1601562,-0.0098 C 5.3134549,11.689117 5.0968412,11.66718 4.8828125,11.625 4.7101144,11.59097 4.5413812,11.536745 4.3710938,11.492188 3.8542664,11.35696 3.3413167,11.207777 2.8183594,11.097656 2.5862388,11.048779 2.5802622,10.857417 2.7304688,10.806641 c -0.031888,-0.03859 -0.062932,-0.07747 -0.097656,-0.113282 -0.00653,-7e-6 -0.013013,0.0025 -0.019531,0.002 -0.099061,-0.0084 -0.188733,-0.10454 -0.265625,-0.15039 -0.083719,-0.109909 -0.099974,-0.121324 -0.1679687,-0.251953 -0.010009,-0.01923 -0.014784,-0.04189 -0.021484,-0.0625 -0.0034,-0.01046 -0.0013,-0.02235 -0.00781,-0.03125 -0.012336,-0.01677 -0.15024,-0.157863 -0.15625,-0.164063 C 1.9570388,9.9890599 1.9176215,9.9443362 1.8828125,9.8964844 1.8545835,9.8576779 1.8304785,9.8158586 1.8046875,9.7753906 1.7767325,9.7315258 1.7462631,9.6898342 1.7207031,9.6445312 1.6435692,9.5078183 1.6010608,9.3572436 1.546875,9.2109375 1.53895,9.1822335 1.5344785,9.152656 1.5234375,9.125 1.5097215,9.090644 1.4890282,9.0585616 1.4726562,9.0253906 1.4544164,8.9884334 1.4398089,8.9501615 1.4199219,8.9140625 1.4022149,8.8819215 1.3802001,8.8517835 1.3613281,8.8203125 1.3224572,8.7554921 1.1966657,8.5354932 1.1699219,8.4882812 1.1276799,8.405953 1.0800026,8.3250332 1.0429688,8.2402344 0.96209494,8.055052 0.96005342,7.9993862 0.90820312,7.8203125 0.84590466,7.605154 0.77534488,7.3922614 0.7109375,7.1777344 L 0.6640625,7.0175781 C 0.6601319,6.9959001 0.65809273,6.974393 0.65234375,6.953125 0.61751671,6.82428 0.6048536,6.8284057 0.56835938,6.6894531 0.51278998,6.4778716 0.52058201,6.4583455 0.49609375,6.2226562 0.49455685,5.9021549 0.48877556,5.8349528 0.515625,5.5 0.5441196,5.1445235 0.5631194,5.1002009 0.6054688,4.765625 0.6693242,4.2611418 0.6130788,4.5948293 0.6914063,4.1777344 0.7146002,4.0939604 0.7402892,4.0104962 0.7597657,3.9257812 0.7830961,3.8243031 0.79769,3.7211941 0.8183595,3.6191406 0.8379386,3.5224706 0.8612402,3.4267399 0.8808595,3.3300781 0.8979951,3.2456531 0.906175,3.1590477 0.9296876,3.0761719 0.9844269,2.8832309 1.046872,2.8052455 1.1503907,2.6308594 c 0.027494,-0.023953 0.055808,-0.04912 0.083984,-0.072266 0.0178,-0.014622 0.039179,-0.023983 0.054687,-0.041016 0.057989,-0.063688 0.059537,-0.1206118 0.1054687,-0.1972656 0.098365,-0.1641567 0.1448241,-0.1898213 0.2871094,-0.3359375 0.063945,-0.045479 0.122668,-0.098872 0.1914063,-0.1367188 0.089643,-0.049357 0.406748,-0.1572946 0.4902343,-0.1875 0.2333644,-0.084431 0.4671507,-0.1729681 0.703125,-0.25 C 3.4213913,1.285966 3.7814415,1.1809321 4.1425773,1.0761712 4.263521,1.0410872 4.3838457,1.0018662 4.5058586,0.97070242 c 0.1185657,-0.030283 0.23787,-0.0520058 0.3574218,-0.078125 0.1011478,-0.0126773 0.2030641,-0.0310464 0.3046876,-0.0390625 0.2207895,-0.0174159 0.5013334,-0.009724 0.7207031,-0.0253906 0.077453,-0.005532 0.1536325,-0.0180803 0.2304687,-0.0292969 0.078476,-0.0114559 0.1571506,-0.0345234 0.2363282,-0.0390625 0.090689,-0.005199 0.18062,-0.005621 0.2714851,-0.005859 z M 6.8789062,1.0566406 c -0.1731315,0.0027 -0.3466721,-3.112e-4 -0.5195312,0.00977 -0.063985,0.00373 -0.1260873,0.023573 -0.1894531,0.033203 -0.080017,0.012163 -0.1595146,0.02534 -0.2402344,0.03125 -0.2496664,0.018272 -0.500439,0.00768 -0.75,0.027344 -0.092687,0.0073 -0.1851389,0.025171 -0.2773437,0.037109 -0.1105254,0.02455 -0.2224193,0.04586 -0.3320313,0.074215 C 4.4551024,1.2993337 4.3427753,1.3358802 4.2285156,1.3691406 3.872569,1.4727552 3.5158982,1.5764542 3.1660156,1.6992188 2.9312791,1.7758054 2.7008767,1.8613267 2.46875,1.9453125 2.3937754,1.9724392 2.0769491,2.0808367 1.9902344,2.1289062 c -0.047055,0.026085 -0.084644,0.066375 -0.1269532,0.099609 -0.1087207,0.1160883 -0.1446607,0.1381325 -0.2167968,0.265625 -0.066509,0.1175465 0.011641,0.05074 -0.1015625,0.1875 C 1.5104064,2.7233386 1.3988046,2.8182103 1.3515625,2.859375 1.3047575,2.9581792 1.2409146,3.0824902 1.2128906,3.1875 c -0.017196,0.064438 -0.018545,0.1317938 -0.03125,0.1972656 -0.019446,0.1002089 -0.0442,0.1987792 -0.064453,0.2988282 -0.02022,0.099886 -0.033767,0.2014694 -0.056641,0.3007812 -0.021316,0.092547 -0.051153,0.1818217 -0.0761719,0.2734375 -0.0712973,0.389604 -0.0151256,0.05589 -0.0761719,0.5410156 -0.042105,0.3346021 -0.061896,0.3835642 -0.0898437,0.734375 -0.0252981,0.3175476 -0.017543,0.384211 -0.015625,0.6875 0.0228236,0.2072555 0.0148502,0.2209042 0.0644531,0.4023438 0.0874355,0.3198259 -0.009172,-0.079476 0.0761719,0.2382812 0.008735,0.032524 0.0146454,0.064681 0.0214844,0.097656 L 1.003906,7.0898435 c 0.064175,0.2135893 0.1332907,0.426391 0.1953126,0.640625 0.049308,0.1703172 0.056067,0.237532 0.1308593,0.40625 0.032049,0.072296 0.074491,0.14096 0.1113281,0.2109374 0.017314,0.030497 0.082109,0.1443027 0.1328126,0.2324219 0.014894,-0.025149 0.036726,-0.046699 0.054687,-0.070312 0.00561,-0.00737 -0.021362,0.028588 -0.013672,0.023437 0.015728,-0.010534 0.032361,-0.023312 0.039063,-0.041016 0.07339,-0.1938893 0.062182,-0.318608 0.078125,-0.5351563 -0.00148,-0.1198913 0.00307,-0.2396777 -0.00391,-0.359375 C 1.7202576,7.4559743 1.6793906,7.2892232 1.6503906,7.1523438 1.6118729,6.9705375 1.5907655,6.8973054 1.5703125,6.6992188 1.5567305,6.5676751 1.5508656,6.4346096 1.5410156,6.3027344 1.5261766,6.1388978 1.5165799,5.9759596 1.4980469,5.8125 1.4955729,5.7906874 1.4099635,5.1945925 1.4023438,5.0878906 c -0.00566,-0.07923 -0.00313,-0.1588535 -0.00391,-0.2382812 -0.00271,-0.278613 -9.738e-4,-0.206215 0.00195,-0.5 0.00288,-0.093255 0.00392,-0.1860792 0.00781,-0.2792969 9.39e-4,-0.022517 0.018123,-0.3146434 0.017578,-0.3613281 -0.00333,-0.2857845 -0.024595,-0.07039 -0.013672,-0.3964844 0.00255,-0.076004 0.013511,-0.1507548 0.019531,-0.2265625 0.041615,-0.1551547 0.044244,-0.2143464 0.140625,-0.3554687 0.1095507,-0.1604063 0.3086331,-0.1985217 0.4375,-0.3359376 0.014635,0.012733 0.037809,0.057762 0.042969,0.039063 C 2.1078465,2.233919 1.9573037,2.1984603 2.2011719,2.0800781 2.327265,2.0188682 2.4670781,1.9910926 2.6035156,1.9589844 3.3013782,1.7947536 3.4087776,1.8020518 4.1230469,1.7167969 c 0.1495153,-0.00273 0.2977285,-0.00883 0.4472656,-0.00781 0.144107,9.777e-4 0.2875499,0.021073 0.4316406,0.023437 0.5404506,0.00887 1.0815936,-0.025533 1.6191407,-0.078125 0.2302703,-0.015861 0.4607002,-0.041696 0.6914062,-0.048828 0.2020212,-0.00625 0.4034021,0.00327 0.6054688,0.00781 0.4228661,0.00951 0.8447925,0.039074 1.2675781,0.048828 0.049775,0.01339 0.1737334,0.039889 0.2148437,0.080078 0.013956,0.013644 -0.050362,-4.31e-4 -0.074219,0.039063 -0.016531,0.027364 -0.060254,0.1068813 -0.033203,0.089844 0.068122,-0.042905 0.1122266,-0.1157393 0.1679687,-0.1738282 0.045125,0.015356 0.094385,0.021548 0.1347656,0.046875 0.044239,0.027747 0.074754,0.072102 0.1113281,0.109375 0.076654,0.078117 0.1536361,0.1565086 0.2285157,0.2363282 0.2034353,0.2168555 0.3949983,0.4508068 0.6289063,0.6367187 0.02289,0.020852 0.04646,0.040602 0.06836,0.0625 0.0034,0.00336 0.0038,0.00908 0.0078,0.011719 0.03658,0.024368 0.08157,0.037918 0.113281,0.068359 0.118971,0.1142227 0.133048,0.2831725 0.166016,0.4355469 0.01388,-0.1243356 0.01027,-0.2508421 0.0059,-0.375 -0.0073,-0.2058124 2.2e-4,-0.1763673 -0.02539,-0.359375 -0.0052,-0.037043 -0.0101,-0.108421 -0.04102,-0.140625 C 10.738613,2.3258292 10.65109,2.197487 10.5625,2.0664062 10.521457,2.0056674 10.486869,1.9398632 10.443359,1.8808594 10.346415,1.749379 10.308194,1.7313267 10.181641,1.6269531 10.106784,1.5994543 10.03312,1.5688009 9.9570312,1.5449219 9.768062,1.485618 9.4521619,1.412923 9.2714844,1.375 8.6357203,1.241557 8.3380894,1.1825781 7.6621094,1.1113281 7.4021417,1.0839263 7.1396925,1.0746556 6.8789062,1.0566406 Z m 0.4296876,0.8535156 c -0.2224031,0.00695 -0.4440532,0.031252 -0.6660157,0.046875 -0.544111,0.053179 -1.091642,0.090701 -1.6386719,0.082031 -0.1505946,-0.00239 -0.3005614,-0.024418 -0.4511718,-0.025391 -0.1415604,-9.1e-4 -0.2822943,0.00492 -0.4238282,0.00781 -0.6872375,0.083438 -0.793767,0.07713 -1.4667968,0.2363281 -0.1073465,0.025392 -0.2128684,0.05565 -0.3164063,0.09375 -0.021037,0.077666 -0.059449,0.1481533 -0.089844,0.2226563 -0.1706853,0.1626339 -0.082051,0.094299 -0.2871094,0.2246093 -0.042069,0.026734 -0.088112,0.04884 -0.1269531,0.080078 -0.071571,0.057561 -0.09691,0.1960272 -0.1152344,0.2792969 -0.00325,0.05825 -0.00882,0.1174483 -0.00977,0.1757813 -0.00728,0.4474387 0.00953,-0.035702 0.013672,0.3554687 0.00108,0.1024773 -0.013478,0.3003738 -0.017578,0.3984375 -0.00379,0.090622 -0.00504,0.1808257 -0.00781,0.2714844 -0.00279,0.2878185 -0.00464,0.2151765 -0.00195,0.4882812 7.7e-4,0.078892 -0.00174,0.1595896 0.00391,0.2382813 0.00582,0.081032 0.020339,0.1597297 0.03125,0.2402344 0.020031,0.1477995 0.043752,0.2951573 0.060547,0.4433593 0.019061,0.1682014 0.031493,0.3372821 0.046875,0.5058594 0.00999,0.1335006 0.015601,0.2672197 0.029297,0.4003906 0.01854,0.1802721 0.037106,0.2492886 0.072266,0.4140626 0.030855,0.144597 0.072609,0.3162502 0.082031,0.4648437 0.00837,0.1320737 0.00538,0.2641677 0.00781,0.3964844 -0.018173,0.2472428 -0.0033,0.5364272 -0.1640625,0.7460937 0.015035,0.1225362 0.020852,0.146904 0.025391,0.28125 0.00316,0.093408 -0.018857,0.2166016 0.042969,0.2988282 0.012333,0.016402 0.034094,0.025165 0.050781,0.037109 0.057503,0.043774 0.1173874,0.089134 0.1601563,0.1484375 0.017014,0.023593 0.030556,0.050139 0.046875,0.074219 0.024566,0.03625 0.1021152,0.1341982 0.1191406,0.15625 0.053638,0.086814 0.092763,0.1400902 0.1308594,0.2324218 0.00507,0.012282 0.024293,0.075312 0.044922,0.1152352 0.030776,0.0061 0.054471,0.02991 0.082031,0.04492 0.1155288,0.06895 0.2228464,0.144642 0.2988281,0.257812 0.015651,0.02331 0.032503,0.04692 0.039063,0.07422 0.00681,0.02832 0.00865,0.09772 0.00977,0.144531 0.010043,0.01211 0.021476,0.02267 0.03125,0.03516 0.051392,0.03264 0.079486,0.06869 0.09375,0.105469 0.00841,0.0085 0.014425,0.01957 0.023437,0.02734 -0.00122,-0.08142 0.078284,-0.156172 0.2363282,-0.132813 0.2224273,0.03287 0.448598,0.01424 0.671875,0.02344 0.1185434,0.0049 0.2356259,0.01202 0.3535156,0.02539 0.1991093,0.02257 0.5547877,0.08532 0.7578125,0.119141 0.087481,0.02107 0.1745889,0.04002 0.2617187,0.0625 0.091496,0.02361 0.2263136,0.04853 0.21875,0.185547 0.010526,0.0096 0.020058,0.01942 0.03125,0.0293 0.019941,0.0176 0.043962,0.03194 0.060547,0.05273 0.032988,0.04136 0.056827,0.08863 0.085937,0.132813 0.073106,0.167545 0.053709,0.131953 0.1054688,0.207031 0.1105685,0.0068 0.2048416,0.0087 0.359375,-0.0098 0.00168,-0.0024 0.00413,-0.0036 0.00586,-0.0059 7.608e-4,-0.0021 0.00157,-0.0042 0.00195,-0.0059 2.367e-4,-9.99e-4 0.00297,4.53e-4 0.00391,0 0.018407,-0.02239 0.038522,-0.04021 0.066406,-0.04101 0.050821,-0.0015 0.077833,0.0444 0.091797,0.103515 0.031911,-0.01542 0.061964,0.01421 0.1933594,0.07227 0.3085073,0.112531 0.2639562,0.102923 0.6308594,0.191406 0.1070742,0.02582 0.215801,0.04013 0.3222656,0.06836 0.1318661,0.03497 0.3691209,0.102018 0.4882812,0.201172 0.045098,0.03753 0.071548,0.09225 0.1074219,0.138672 0.036931,0.03651 0.065835,0.08302 0.109375,0.111328 0.093292,0.06065 0.1970999,0.105039 0.296875,0.154296 0.1102264,0.05442 0.2190535,0.112638 0.3339844,0.15625 0.2882022,0.10937 0.5832846,0.160575 0.8847656,0.212891 0.033572,0.01691 0.074578,0.02273 0.099609,0.05078 0.00599,0.0067 0.1466419,0.270472 0.1679686,0.294922 0.0602,0.069 0.352958,0.297981 0.398438,0.337891 0.09808,0.08607 0.191119,0.177225 0.287109,0.265625 0.104514,0.127598 0.221077,0.257475 0.310547,0.398437 0.01726,0.0272 0.0268,0.05808 0.04297,0.08594 0.0032,0.0056 -0.0096,-0.02263 -0.0039,-0.01953 0.01713,0.0093 0.02969,0.02675 0.04297,0.04101 0.03037,0.03262 0.05866,0.06597 0.08789,0.09961 0.250086,0.302018 0.510519,0.596915 0.785156,0.876953 0.0525,0.05354 0.352223,0.35981 0.476563,0.43164 0.03693,0.02133 0.08197,0.02176 0.123046,0.0332 0.314896,0.0075 0.580474,0.174773 0.857422,0.300781 0.07047,0.03206 0.431775,0.17874 0.515625,0.21289 0.05118,0.01724 0.100654,0.03513 0.152344,0.05078 0.02403,0.0073 0.04962,0.01248 0.07422,0.01758 0.01355,0.0028 0.02834,3.18e-4 0.04102,0.0059 0.03632,0.01581 0.06912,0.03895 0.103515,0.05859 0.02641,0.01508 0.05002,0.03524 0.07813,0.04687 0.03051,0.01265 0.06372,0.01524 0.0957,0.02344 0.299287,0.05112 0.573978,0.190027 0.853516,0.300782 0.09092,0.03603 0.200662,0.06932 0.294922,0.09961 0.02149,0.0054 0.04066,0.01203 0.06055,0.01758 0.07666,-0.03082 0.160349,-0.08957 0.210937,-0.125 0.05474,-0.03833 0.108443,-0.07649 0.158203,-0.121094 0.03242,-0.02906 0.107562,-0.127758 0.138672,-0.167968 0.05111,-0.08304 0.09845,-0.169327 0.15625,-0.248047 0.02924,-0.03983 0.06177,-0.07599 0.0918,-0.115235 0.06209,-0.08113 0.08767,-0.122481 0.142578,-0.207031 0.0028,-0.02609 0.0056,-0.05198 0.0078,-0.07813 0.0081,-0.09677 0.0074,-0.09833 0,-0.195312 -0.0014,-0.01897 -0.01608,-0.16715 -0.01563,-0.1875 0.0012,-0.05269 0.0093,-0.10373 0.01367,-0.15625 0.03137,-0.240102 0.124844,-0.457601 0.230469,-0.673829 0.0212,-0.04339 0.04624,-0.08491 0.07031,-0.126953 -0.01327,-0.02457 -0.02752,-0.0486 -0.03906,-0.07422 -0.02047,-0.04543 -0.03464,-0.09306 -0.05469,-0.138672 -0.01825,-0.04151 -0.04122,-0.08007 -0.06055,-0.121094 -0.02655,-0.05635 -0.05063,-0.115065 -0.07617,-0.171875 -0.07855,-0.181607 -0.172449,-0.355869 -0.255859,-0.535156 C 16.302956,13.128211 16.299111,13.07548 16.15625,12.841797 15.96761,12.533233 15.938842,12.52368 15.699219,12.25 c -0.07589,-0.08164 -0.157536,-0.158201 -0.228516,-0.244141 -0.07774,-0.09412 -0.143427,-0.197364 -0.216797,-0.294921 -0.06971,-0.0927 -0.14535,-0.181101 -0.21289,-0.275391 -0.07125,-0.09946 -0.336774,-0.502828 -0.408204,-0.621094 -0.05101,-0.08446 -0.0965,-0.171622 -0.144531,-0.257812 -0.131878,-0.303354 -0.06083,-0.14495 -0.195312,-0.431641 -0.03284,-0.07001 -0.05977,-0.1415754 -0.09766,-0.2089844 -0.04377,-0.077861 -0.09361,-0.1526194 -0.146484,-0.2246094 -0.05875,-0.079988 -0.12675,-0.151991 -0.1875,-0.2304687 C 13.782244,9.358771 13.705926,9.2521699 13.628906,9.1484375 13.53207,9.0178276 13.383867,8.8058598 13.263672,8.6816406 13.215608,8.6319674 13.159102,8.5908176 13.107422,8.5449219 13.041916,8.4867515 12.978589,8.4261936 12.912109,8.3691406 12.821482,8.291367 12.536936,8.0627181 12.447266,7.9902344 11.990097,7.6057959 12.201904,7.7761821 11.740234,7.4179688 c -0.09198,-0.071367 -0.248183,-0.182637 -0.339843,-0.2753907 -0.05859,-0.059289 -0.07534,-0.091331 -0.117188,-0.15625 -0.02655,-0.040667 -0.05386,-0.082168 -0.08008,-0.1230469 C 11.165651,6.8048621 11.125617,6.7481047 11.091797,6.6875 10.986532,6.4988915 10.988118,6.4608197 10.892578,6.2753906 c -0.03165,-0.061435 -0.07866,-0.1307694 -0.117187,-0.1894531 -0.03609,-0.070354 -0.08733,-0.1578864 -0.105469,-0.2363281 -0.01271,-0.054816 -0.01102,-0.1126908 -0.02148,-0.1679688 -0.05044,-0.2659922 -0.02927,0.016854 -0.07031,-0.3222656 -0.0092,-0.075631 -0.01042,-0.1505548 -0.01563,-0.2265625 -8.8e-5,-0.020201 0.0018,-0.040352 0.002,-0.060547 -0.008,-0.02434 -0.01827,-0.047598 -0.02539,-0.072266 -0.01358,-0.047057 -0.02846,-0.094055 -0.03516,-0.1425781 -0.0182,-0.1321931 -0.0055,-0.2244319 0.002,-0.3574219 0.02961,-0.094975 -0.0016,-0.1971548 0.01953,-0.2929688 0.01254,-0.056901 0.03315,-0.1135986 0.05859,-0.1660156 0.02004,-0.041287 0.04405,-0.074321 0.07031,-0.1054687 -0.002,-0.042447 -0.0061,-0.085891 -0.0078,-0.1289063 -0.01558,-0.3944563 0.0091,-0.00958 -0.02148,-0.4335937 -0.0035,-0.014758 -0.0571,-0.2535848 -0.07617,-0.2929688 -0.03874,-0.079945 -0.02975,7.542e-4 -0.03125,0 C 10.47025,3.0569401 10.395815,2.9840766 10.359375,2.9511719 10.32259,2.9203169 10.28484,2.892407 10.25,2.859375 10.009021,2.6309257 9.9527655,2.5545711 9.7109375,2.296875 9.6374397,2.2185544 9.5635172,2.1411058 9.4882812,2.0644531 9.4821619,2.0582184 9.4751286,2.0528614 9.46875,2.046875 9.4428359,2.0571533 9.4155832,2.0632627 9.3886719,2.0605469 9.3012887,2.0517249 9.2473156,1.993999 9.1699219,1.96875 9.1520129,1.962907 9.1337624,1.9623844 9.1152344,1.9589844 8.885668,1.9696224 8.654717,1.9453069 8.4257812,1.9355469 8.1834347,1.9252169 7.5306934,1.9032165 7.3085938,1.9101562 Z M 6.2265625,11.414062 c -0.00178,0.0022 -0.00413,0.0036 -0.00586,0.0059 -7.608e-4,0.0021 -0.00147,0.0041 -0.00195,0.0059 0.011922,-0.0014 0.018337,-0.0022 0.03125,-0.0039 0.00828,-0.0011 -0.015982,-0.01144 -0.023437,-0.0078 z M 2.3457031,2.3515625 c -0.018914,0.00696 -0.03799,0.011902 -0.056641,0.019531 -0.011198,0.00458 3.627e-4,0.039326 0.011719,0.035156 0.022471,-0.00825 0.051182,-0.077793 0.044922,-0.054687 z m 8.8789059,3.9121094 c 0.04216,0.092096 0.0856,0.1909933 0.125,0.2617187 0.03311,0.059432 0.07265,0.1146113 0.109375,0.171875 0.02722,0.042444 0.05448,0.08472 0.08203,0.1269532 0.01836,0.030807 0.0373,0.064074 0.0625,0.089844 0.08645,0.088405 0.241295,0.1992886 0.324218,0.2636719 0.466797,0.3624293 0.257251,0.1945654 0.710938,0.5761718 0.105279,0.085114 0.374961,0.2998086 0.478516,0.3886719 0.06604,0.056676 0.128649,0.1175847 0.193359,0.1757813 0.06236,0.056079 0.129387,0.1075048 0.1875,0.1679687 0.04743,0.049348 0.09967,0.1150068 0.150391,0.1796875 C 13.59508,8.5413294 13.5457,8.4125844 13.480469,8.2988281 13.429592,8.2101049 13.366957,8.1282776 13.310547,8.0429688 13.130146,7.7701616 13.196176,7.8711168 13.0625,7.6582031 12.936185,7.5140628 12.78549,7.3963629 12.634766,7.2792969 12.574337,7.2323629 12.515995,7.1822797 12.453125,7.1386719 12.313676,7.0419482 12.203327,6.9905472 12.050781,6.9101562 11.90197,6.8139517 11.724365,6.7750301 11.582031,6.6679688 11.474338,6.586964 11.399516,6.4750927 11.322266,6.3671875 11.291981,6.3308736 11.258298,6.297287 11.224609,6.2636719 Z M 3.375,10.910156 c 5.211e-4,0.0026 -3.732e-4,0.0052 0,0.0078 0.3589429,0.08935 0.7165156,0.185704 1.0742188,0.279297 0.1702071,0.04453 0.3371429,0.09878 0.5097656,0.132812 0.1777759,0.03501 0.3591984,0.05236 0.5390625,0.07617 -0.00457,-0.01124 -0.00348,-0.0082 -0.00977,-0.02344 -0.040045,-0.09136 -0.00574,-0.03734 -0.09375,-0.11914 -0.01525,-0.01417 -0.024926,-0.03453 -0.042969,-0.04492 -0.038158,-0.02197 -0.09495,-0.0218 -0.1191406,-0.05859 -0.018183,-0.02766 -0.023017,-0.06019 -0.027344,-0.09375 -0.1296754,-0.09949 -0.2668634,-0.205865 -0.1640625,0 -0.1854792,-0.03093 -0.5477752,-0.09406 -0.7304687,-0.115234 -0.1100261,-0.01275 -0.219409,-0.02089 -0.3300781,-0.02539 -0.2012897,-0.0083 -0.4043337,0.0023 -0.6054688,-0.01563 z m 11.685547,0.002 c 0.09197,0.140293 0.185853,0.286526 0.222656,0.337891 0.06867,0.09584 0.144204,0.18685 0.214844,0.28125 0.0098,0.01303 0.0198,0.02583 0.0293,0.03906 -0.06999,-0.12568 -0.131526,-0.236907 -0.226563,-0.36914 -0.0281,-0.0391 -0.140504,-0.170624 -0.240234,-0.289063 z m -8.8945314,0.685547 c -0.00203,0.01884 -0.00324,0.03744 0.00586,0.04883 -0.00301,-0.01538 -0.00562,-0.03151 -0.00586,-0.04883 z m 0.054687,0.132813 c -0.011616,0.0017 -0.025131,0.0026 -0.037109,0.0039 0.037257,0.04216 0.073673,0.08525 0.1132812,0.125 0.075333,0.07561 0.1509387,0.149812 0.2324219,0.21875 0.095946,0.08117 0.2001699,0.154568 0.2988281,0.232422 0.1043687,0.08236 0.2068468,0.164846 0.3105469,0.248047 0.3244556,0.265323 0.1596834,0.11193 0.4628906,0.4375 0.047424,0.05092 0.096514,0.100188 0.1425781,0.152344 0.056457,0.06392 0.105852,0.134935 0.1640625,0.197265 0.1007491,0.107879 0.328028,0.311449 0.4316407,0.40625 0.2052603,0.147085 0.4419639,0.23718 0.6503906,0.378906 0.045255,0.03077 0.088068,0.06318 0.1289062,0.09961 0.09782,0.106525 0.050285,0.0624 0.1425782,0.140625 0.2119084,0.162267 0.4409164,0.296315 0.6679687,0.435547 0.093858,0.05757 0.1855267,0.116118 0.2792967,0.173828 0.239804,0.147588 0.11183,0.05638 0.285157,0.1875 0.01126,0.03043 0.04483,0.03729 0.06445,0.05859 0.0227,0.02466 0.04142,0.05182 0.06445,0.07617 0.123277,0.130354 0.272384,0.240205 0.412109,0.351563 0.07687,0.0591 0.148464,0.107847 0.214844,0.179687 0.02802,0.03032 0.04545,0.07 0.07422,0.09961 0.0078,0.0081 0.02217,0.0078 0.0332,0.0098 0.04131,0.0073 0.08178,0.01008 0.123047,0.01758 0.07325,0.01336 0.1459,0.02951 0.21875,0.04492 0.177558,0.02767 0.352825,0.07824 0.533203,0.08594 0.01168,5e-4 0.02347,-0.0041 0.03516,-0.0039 0.04564,6.3e-4 0.06733,0.0061 0.109375,0.01367 0.114168,0.0062 0.229654,-0.0029 0.34375,0.0039 0.09897,0.0059 0.196442,0.01787 0.294922,0.0293 0.0062,7.15e-4 0.03516,0.0042 0.04883,0.0059 -0.0084,-0.004 -0.01693,-0.0078 -0.02539,-0.01172 -0.180791,-0.08391 -0.367281,-0.152709 -0.568359,-0.162109 -0.07066,-0.02778 -0.147451,-0.04353 -0.212891,-0.08203 -0.131361,-0.07728 -0.446195,-0.396078 -0.509765,-0.460938 -0.277725,-0.283344 -0.541848,-0.581305 -0.794922,-0.886719 -0.0207,-0.02481 -0.04057,-0.05049 -0.0625,-0.07422 -0.06262,-0.06776 -0.03763,-0.01682 -0.105469,-0.113282 -0.009,-0.01286 -0.01113,-0.0297 -0.01953,-0.04297 -0.07793,-0.122866 -0.177628,-0.237417 -0.267578,-0.34961 -0.09181,-0.08476 -0.181491,-0.171466 -0.275391,-0.253906 -0.200876,-0.176361 -0.4674914,-0.334239 -0.5644531,-0.599609 -0.00522,-0.01434 0.036116,-0.0091 0.041016,-0.01953 C 9.548502,13.057937 9.3049582,13.018237 9.1777345,12.984487 8.8374507,12.894217 8.6893179,12.839445 8.3867189,12.681753 8.2614797,12.616483 8.1325087,12.552885 8.0175782,12.470815 c -0.059655,-0.0426 -0.1002229,-0.106706 -0.1503906,-0.160156 -0.00481,-0.07856 0.00791,-0.05772 -0.125,-0.113281 -0.251679,-0.105205 -0.3386174,-0.09512 -0.6132813,-0.16211 -0.399744,-0.0975 -0.3488338,-0.08879 -0.6914062,-0.216797 -0.064561,-0.03631 -0.1585773,-0.04639 -0.2167969,-0.08789 z M 16.74414,13.353563 c 0.02785,0.05705 0.054,0.114952 0.08203,0.171875 -0.01202,-0.02919 -0.02336,-0.05872 -0.03516,-0.08789 -0.01534,-0.02819 -0.03158,-0.05581 -0.04687,-0.08398 z m 0.291016,1.476562 c -0.05896,0.132319 -0.110094,0.26603 -0.13086,0.41211 -0.0042,0.03431 -0.01268,0.067 -0.01367,0.101562 -0.0019,0.06649 0.01348,0.132829 0.01758,0.199219 0.0039,0.06384 4e-4,0.126029 -0.0039,0.1875 0.07606,-0.07379 0.149482,-0.151663 0.173828,-0.257813 0.01092,-0.0475 -0.0032,-0.178137 -0.0059,-0.210937 -0.0114,-0.09875 -0.032,-0.197115 -0.0332,-0.296875 -3.97e-4,-0.03206 0.0033,-0.06366 0.002,-0.0957 -6.41e-4,-0.01591 -0.0048,-0.02553 -0.0059,-0.03906 z m -3.52539,1.513672 c 0.0042,0.0095 0.0093,0.01853 0.01758,0.02344 0.0078,0.0046 0.01924,-1.94e-4 0.02734,0.0039 0.02888,0.0146 0.05393,0.03473 0.08203,0.05078 0.09242,0.0528 0.194162,0.103021 0.289062,0.150391 0.122655,0.05061 0.235509,0.09889 0.359375,0.144531 0.03145,0.01159 0.06517,0.01744 0.0957,0.03125 0.03014,0.01363 0.05632,0.03607 0.08594,0.05078 0.02115,0.01051 0.126367,0.04047 0.134765,0.04297 0.102007,0.0088 0.204414,0.0092 0.306641,0.0078 -0.16529,-0.06801 -0.332299,-0.130474 -0.509765,-0.160156 -0.100512,-0.0342 -0.185006,-0.04939 -0.265626,-0.119141 -0.0069,-0.006 0.03604,8.94e-4 0.02734,-0.002 -0.01986,-0.0065 -0.04207,-0.0053 -0.0625,-0.0098 -0.122095,-0.02672 -0.12984,-0.03446 -0.269531,-0.08203 -0.06419,-0.02614 -0.192294,-0.08046 -0.318359,-0.132812 z" />
    </clipPath>
  </defs>
  <sodipodi:namedview
     id="namedview2"
     pagecolor="#505050"
     bordercolor="#eeeeee"
     borderopacity="1"
     inkscape:showpageshadow="0"
     inkscape:pageopacity="0"
     inkscape:pagecheckerboard="0"
     inkscape:deskcolor="#d1d1d1"
     inkscape:zoom="32.791667"
     inkscape:cx="11.984752"
     inkscape:cy="12"
     inkscape:window-width="1920"
     inkscape:window-height="1001"
     inkscape:window-x="-9"
     inkscape:window-y="-9"
     inkscape:window-maximized="1"
     inkscape:current-layer="svg2" />
  <path
     d="m 12,3 v 2 h 7 V 19 H 5 V 12 H 3 v 7 c 0,1.099999 0.9000011,2 2,2 h 14 c 1.109999,0 2,-0.900001 2,-2 V 5 C 21,3.9000011 20.109999,3 19,3 Z"
     id="path19"
     style="" />
  <path
     d="m 16.240234,16.240234 v -7 h -2 v 3.589844 L 4.410156,3 3,4.410156 12.830078,14.240234 H 9.240234 v 2 z"
     id="path18" />
</svg>
